<svg width="24" height="19" viewBox="0 0 24 19" fill="none" xmlns="http://www.w3.org/2000/svg">
<g clip-path="url(#clip0_380_35)">
<path d="M20.4158 6.73449C20.4158 7.56235 20.1703 8.37162 19.7103 9.05995C19.2504 9.74827 18.5966 10.2847 17.8318 10.6015C17.0669 10.9183 16.2253 11.0011 15.4133 10.8395C14.6014 10.678 13.8556 10.2793 13.2703 9.69381C12.685 9.10836 12.2864 8.36248 12.125 7.55051C11.9636 6.73854 12.0466 5.89694 12.3635 5.13214C12.6805 4.36735 13.2171 3.71372 13.9055 3.25391C14.5939 2.79411 15.4032 2.54878 16.2311 2.54895C16.7807 2.54901 17.3249 2.65732 17.8326 2.86769C18.3404 3.07807 18.8017 3.38639 19.1903 3.77505C19.5789 4.16371 19.8871 4.62511 20.0974 5.13289C20.3076 5.64067 20.4158 6.1849 20.4158 6.73449" fill="#231F20"/>
<path d="M23.5554 11.6563C23.5562 13.5625 22.8138 15.3939 21.4859 16.7614C20.158 18.1289 18.3493 18.9248 16.4439 18.9801C16.3729 18.9823 16.3019 18.9831 16.2309 18.9831C16.1598 18.9831 16.0883 18.9831 16.0173 18.9801C14.1014 18.9407 12.2772 18.152 10.9362 16.7831C9.5951 15.4142 8.84399 13.5742 8.84399 11.6579C8.84399 9.74157 9.5951 7.90158 10.9362 6.53269C12.2772 5.16381 14.1014 4.37508 16.0173 4.33573C16.0883 4.33352 16.1594 4.33264 16.2309 4.33264C16.3023 4.33264 16.3734 4.33264 16.4439 4.33573C18.3488 4.39095 20.157 5.18644 21.4849 6.55329C22.8127 7.92015 23.5554 9.75073 23.5554 11.6563V11.6563Z" fill="#EE2737"/>
<path d="M14.6134 1.2266C14.6134 1.59234 14.3337 1.88838 13.9882 1.88838C13.6428 1.88838 13.3635 1.59234 13.3635 1.2266C13.3635 0.860856 13.6437 0.564819 13.9882 0.564819C14.3328 0.564819 14.6134 0.860856 14.6134 1.2266Z" fill="#231F20"/>
<path d="M19.0602 1.2266C19.0602 1.59234 18.78 1.88838 18.435 1.88838C18.09 1.88838 17.8103 1.5919 17.8103 1.2266C17.8103 0.861297 18.0896 0.564819 18.4346 0.564819C18.7796 0.564819 19.0597 0.860856 19.0602 1.2266Z" fill="#231F20"/>
<path d="M16.4437 4.24048V18.9788C16.3727 18.981 16.3017 18.9819 16.2306 18.9819C16.1596 18.9819 16.0881 18.9819 16.0171 18.9788V4.24048C16.0886 4.24048 16.1592 4.23474 16.2302 4.23474C16.3012 4.23474 16.3727 4.23827 16.4437 4.24048Z" fill="#231F20"/>
<path d="M20.9635 9.27977V14.7536C20.9635 15.218 20.9186 15.5268 20.8289 15.6801C20.6989 15.9245 20.4183 16.0467 19.9871 16.0467C19.6115 16.0467 19.3506 15.9711 19.2045 15.8199C19.0583 15.6687 18.9848 15.3615 18.9839 14.8983V11.3564C18.9839 11.0308 18.979 10.8358 18.9715 10.7705C18.9481 10.5942 18.8664 10.4307 18.7395 10.306C18.658 10.2248 18.4015 10.1807 17.97 10.1736C17.505 10.1661 17.2729 9.94111 17.2729 9.50213C17.2729 9.24124 17.42 9.04771 17.7141 8.92153C18.0071 8.79535 18.3093 8.67093 18.6181 8.54828C18.8137 8.38534 19.0093 8.22666 19.2049 8.07224C19.4899 7.85224 19.7912 7.74238 20.1089 7.74268C20.5166 7.74268 20.7772 7.90547 20.8907 8.23107C20.9401 8.39387 20.9639 8.74461 20.9644 9.28154" fill="#231F20"/>
<path d="M14.3426 9.28021V14.7536C14.3426 15.218 14.2977 15.5268 14.208 15.6801C14.0757 15.924 13.7973 16.0467 13.3654 16.0471C12.9908 16.0471 12.73 15.9708 12.5827 15.8204C12.4353 15.6699 12.3621 15.3624 12.3621 14.8983V11.3569C12.3621 11.0313 12.358 10.8358 12.3497 10.7705C12.3265 10.5941 12.2448 10.4305 12.1177 10.306C12.0365 10.2252 11.7793 10.1802 11.3482 10.1736C10.8832 10.1661 10.6516 9.94111 10.6516 9.50169C10.6516 9.24095 10.7985 9.04815 11.0928 8.92153C11.3871 8.79491 11.6871 8.67093 11.9964 8.54872C12.1922 8.38548 12.3877 8.22666 12.5827 8.07224C12.8677 7.85165 13.1699 7.74268 13.4871 7.74268C13.8948 7.74268 14.1555 7.90533 14.2693 8.23063C14.3185 8.39387 14.3429 8.74432 14.3426 9.28198" fill="#231F20"/>
<path d="M0.00463867 8.61623C0.00463867 8.1724 0.225234 7.95048 0.654951 7.95048H1.27261C1.70101 7.95048 1.92292 8.17108 1.92292 8.61623V9.10816L1.89116 9.47258H1.92292C2.36676 8.58447 3.33472 7.75989 4.79329 7.75989C6.68024 7.75989 7.61688 8.79094 7.61688 10.8363V15.3717C7.61688 15.8155 7.39496 16.0374 6.95113 16.0374H6.26817C5.82493 16.038 5.6033 15.8161 5.6033 15.3717V11.2488C5.6033 10.1705 5.28609 9.59964 4.33445 9.59964C3.63693 9.59964 3.06604 9.85332 2.63765 10.3607C2.20925 10.8681 2.00366 11.5025 2.00366 12.2476V15.3717C2.00366 15.8155 1.78306 16.0374 1.35335 16.0374H0.654951C0.226558 16.0374 0.00463867 15.8168 0.00463867 15.3717V8.61623Z" fill="#231F20"/>
<path d="M0.00463867 8.61623C0.00463867 8.1724 0.225234 7.95048 0.654951 7.95048H1.27261C1.70101 7.95048 1.92292 8.17108 1.92292 8.61623V9.10816L1.89116 9.47258H1.92292C2.36676 8.58447 3.33472 7.75989 4.79329 7.75989C6.68024 7.75989 7.61688 8.79094 7.61688 10.8363V15.3717C7.61688 15.8155 7.39496 16.0374 6.95113 16.0374H6.26817C5.82493 16.038 5.6033 15.8161 5.6033 15.3717V11.2488C5.6033 10.1705 5.28609 9.59964 4.33445 9.59964C3.63693 9.59964 3.06604 9.85332 2.63765 10.3607C2.20925 10.8681 2.00366 11.5025 2.00366 12.2476V15.3717C2.00366 15.8155 1.78306 16.0374 1.35335 16.0374H0.654951C0.226558 16.0374 0.00463867 15.8168 0.00463867 15.3717V8.61623Z" stroke="#231F20" stroke-width="0.00926493" stroke-miterlimit="10"/>
</g>
<defs>
<clipPath id="clip0_380_35">
<rect width="23.5554" height="18.4169" fill="white" transform="translate(0 0.564819)"/>
</clipPath>
</defs>
</svg>
