<svg width="53" height="15" viewBox="0 0 53 15" fill="none" xmlns="http://www.w3.org/2000/svg">
<path d="M0.913086 14.6544H46.9321C46.9321 14.6544 52.2013 14.6544 52.2013 9.95972V0.75919H6.08377C6.08377 0.75919 0.913086 0.578626 0.913086 5.36356V14.6544Z" fill="#F58220"/>
<path d="M32.7168 7.71092C32.7168 5.5934 34.5963 3.87805 36.9108 3.87805C39.2253 3.87805 41.1048 5.5934 41.1048 7.71092C41.1048 9.82844 39.2253 11.5438 36.9108 11.5438C34.5963 11.5438 32.7168 9.82844 32.7168 7.71092Z" fill="#0058A9"/>
<path d="M40.8667 7.71092C40.8667 5.5934 42.7462 3.87805 45.0607 3.87805C47.3752 3.87805 49.2547 5.5934 49.2547 7.71092C49.2547 9.82844 47.3752 11.5438 45.0607 11.5438C42.7462 11.5438 40.8667 9.82844 40.8667 7.71092Z" fill="#0058A9"/>
<path d="M34.1285 8.34278V8.59721C34.1285 9.54927 34.6948 9.65597 35.573 9.70521C35.8849 9.72163 36.1968 9.72163 36.5087 9.72163C37.1078 9.72163 37.6988 9.70521 38.2979 9.68059C39.3567 9.60672 39.8491 9.41795 39.8491 8.38382C39.8491 7.30044 39.2253 7.11166 38.1584 7.11166C37.8465 7.11166 37.5428 7.10346 37.2391 7.10346L36.3035 7.08704C35.9834 7.07063 35.5074 7.11987 35.5074 6.7095C35.5074 6.45507 35.77 6.40583 36.0162 6.39762C36.3774 6.3812 36.7221 6.36479 37.0832 6.36479C37.3048 6.36479 37.5264 6.36479 37.7562 6.373C38.0681 6.38941 38.2733 6.45507 38.2897 6.76695H39.6603C39.6521 6.50431 39.6603 6.21705 39.5126 5.97083C39.1843 5.47839 38.5523 5.47018 37.986 5.46197L37.0093 5.44556C36.4759 5.44556 35.4417 5.45376 34.9493 5.56867C34.2188 5.74102 34.0957 6.16781 34.0957 6.78337C34.0957 7.57128 34.3748 7.94061 35.2694 7.99807C36.0327 8.0391 36.8042 8.0391 37.5674 8.0391H37.7973C38.1009 8.0391 38.4456 8.07193 38.4456 8.40844C38.4456 8.76956 38.1338 8.76136 37.8301 8.76956C37.51 8.78598 37.2063 8.79419 36.8944 8.79419C36.6728 8.79419 36.4512 8.78598 36.2378 8.78598C35.9178 8.76957 35.5238 8.77777 35.5238 8.40023C35.5238 8.37561 35.5238 8.35919 35.5156 8.33457H34.1285V8.34278Z" fill="white"/>
<path d="M46.1113 8.05544H44.1415L45.1264 6.39754L46.1113 8.05544ZM46.6284 8.92543L47.0634 9.68872H48.5982L46.0949 5.50293H44.2072L41.6465 9.68872H43.1977L43.6491 8.92543H46.6284Z" fill="white"/>
<path d="M3.17847 6.60287H5.08259V9.63962H6.43682V6.60287H8.34094V5.60156H3.17847V6.60287Z" fill="white"/>
<path d="M8.50488 9.63962H13.4211V8.66293H9.85911V8.02275H13.1585V7.1856H9.85911V6.53721H13.3473V5.60156H8.50488V9.63962Z" fill="white"/>
<path d="M13.8152 9.63962H15.1694V8.08841H15.7686L17.7219 9.63962H19.6425L16.9668 7.57134L19.3552 5.60156H17.5167L15.8014 7.0789H15.1694V5.60156H13.8152V9.63962Z" fill="white"/>
<path d="M19.7163 9.63962H21.0705V6.70136H21.0869L23.6312 9.63962H25.7324V5.60156H24.3781V8.53161H24.3617L21.8174 5.60156H19.7163V9.63962Z" fill="white"/>
<path d="M27.5133 7.39892C27.5133 6.89826 27.6446 6.59459 28.3586 6.59459H29.9427C30.6567 6.59459 30.788 6.89826 30.788 7.39892V7.83391C30.788 8.41664 30.6567 8.63824 30.0083 8.63824H28.2766C27.6364 8.63824 27.5051 8.41664 27.5051 7.83391V7.39892H27.5133ZM26.1262 8.21966C26.1262 9.40153 26.8567 9.68058 28.0714 9.68058H30.2463C31.4693 9.68058 32.1915 9.40153 32.1915 8.21966V7.01317C32.1915 5.8313 31.461 5.55225 30.2463 5.55225H28.0714C26.8485 5.55225 26.1262 5.8313 26.1262 7.01317V8.21966Z" fill="white"/>
</svg>
